<mxfile host="app.diagrams.net" agent="Mozilla/5.0 (Windows NT 10.0; Win64; x64) AppleWebKit/537.36 (KHTML, like Gecko) Chrome/130.0.0.0 Safari/537.36" version="24.8.3">
  <diagram name="Page-1" id="10a91c8b-09ff-31b1-d368-03940ed4cc9e">
    <mxGraphModel dx="1134" dy="703" grid="1" gridSize="10" guides="1" tooltips="1" connect="1" arrows="1" fold="1" page="1" pageScale="1" pageWidth="1100" pageHeight="850" background="none" math="0" shadow="0">
      <root>
        <mxCell id="0" />
        <mxCell id="1" parent="0" />
        <mxCell id="9W3Ne8WXvol5r-dsmGil-2" value="" style="verticalLabelPosition=bottom;verticalAlign=top;html=1;shadow=0;dashed=0;strokeWidth=1;shape=mxgraph.android.phone2;strokeColor=#c0c0c0;" vertex="1" parent="1">
          <mxGeometry x="130" y="240" width="270" height="470" as="geometry" />
        </mxCell>
        <mxCell id="9W3Ne8WXvol5r-dsmGil-5" value="Header" style="rounded=0;whiteSpace=wrap;html=1;fillColor=#f5f5f5;fontColor=#333333;strokeColor=#666666;" vertex="1" parent="1">
          <mxGeometry x="145" y="290" width="240" height="60" as="geometry" />
        </mxCell>
        <mxCell id="9W3Ne8WXvol5r-dsmGil-7" value="Footer" style="rounded=0;whiteSpace=wrap;html=1;fillColor=#f5f5f5;fontColor=#333333;strokeColor=#666666;" vertex="1" parent="1">
          <mxGeometry x="145" y="630" width="240" height="30" as="geometry" />
        </mxCell>
        <mxCell id="9W3Ne8WXvol5r-dsmGil-10" value="" style="verticalLabelPosition=bottom;shadow=0;dashed=0;align=center;html=1;verticalAlign=top;strokeWidth=1;shape=mxgraph.mockup.graphics.simpleIcon;strokeColor=#999999;" vertex="1" parent="1">
          <mxGeometry x="147.5" y="365" width="237.5" height="75" as="geometry" />
        </mxCell>
        <mxCell id="9W3Ne8WXvol5r-dsmGil-12" value="&lt;h1 style=&quot;text-align: center; margin-top: 0px;&quot;&gt;Heading&lt;/h1&gt;&lt;p&gt;Lorem ipsum dolor sit amet, consectetur adipisicing elit, sed do eiusmod tempor incididunt ut labore et dolore magna aliqua.&lt;/p&gt;" style="text;html=1;whiteSpace=wrap;overflow=hidden;rounded=0;" vertex="1" parent="1">
          <mxGeometry x="147.5" y="460" width="232.5" height="100" as="geometry" />
        </mxCell>
        <mxCell id="9W3Ne8WXvol5r-dsmGil-14" value="" style="verticalLabelPosition=bottom;shadow=0;dashed=0;align=center;html=1;verticalAlign=top;strokeWidth=1;shape=mxgraph.mockup.graphics.simpleIcon;strokeColor=#999999;" vertex="1" parent="1">
          <mxGeometry x="160" y="570" width="52" height="50" as="geometry" />
        </mxCell>
        <mxCell id="9W3Ne8WXvol5r-dsmGil-15" value="" style="verticalLabelPosition=bottom;shadow=0;dashed=0;align=center;html=1;verticalAlign=top;strokeWidth=1;shape=mxgraph.mockup.graphics.simpleIcon;strokeColor=#999999;" vertex="1" parent="1">
          <mxGeometry x="230" y="570" width="50" height="50" as="geometry" />
        </mxCell>
        <mxCell id="9W3Ne8WXvol5r-dsmGil-16" value="" style="verticalLabelPosition=bottom;shadow=0;dashed=0;align=center;html=1;verticalAlign=top;strokeWidth=1;shape=mxgraph.mockup.graphics.simpleIcon;strokeColor=#999999;" vertex="1" parent="1">
          <mxGeometry x="310" y="570" width="50" height="50" as="geometry" />
        </mxCell>
        <mxCell id="9W3Ne8WXvol5r-dsmGil-17" value="Header" style="rounded=0;whiteSpace=wrap;html=1;fillColor=#f5f5f5;fontColor=#333333;strokeColor=#666666;" vertex="1" parent="1">
          <mxGeometry x="656.25" y="280" width="240" height="60" as="geometry" />
        </mxCell>
        <mxCell id="9W3Ne8WXvol5r-dsmGil-18" value="Footer" style="rounded=0;whiteSpace=wrap;html=1;fillColor=#f5f5f5;fontColor=#333333;strokeColor=#666666;" vertex="1" parent="1">
          <mxGeometry x="656.25" y="620" width="240" height="30" as="geometry" />
        </mxCell>
        <mxCell id="9W3Ne8WXvol5r-dsmGil-19" value="" style="verticalLabelPosition=bottom;shadow=0;dashed=0;align=center;html=1;verticalAlign=top;strokeWidth=1;shape=mxgraph.mockup.graphics.simpleIcon;strokeColor=#999999;" vertex="1" parent="1">
          <mxGeometry x="658.75" y="355" width="237.5" height="75" as="geometry" />
        </mxCell>
        <mxCell id="9W3Ne8WXvol5r-dsmGil-20" value="&lt;h1 style=&quot;text-align: center; margin-top: 0px;&quot;&gt;Heading&lt;/h1&gt;&lt;p style=&quot;text-align: center;&quot;&gt;&lt;font style=&quot;font-size: 14px;&quot;&gt;Lorem ipsum dolor sit amet, consectetur adipisicing elit, sed do eiusmod tempor incididunt ut labore et dolore magna aliqua&lt;/font&gt;&lt;span style=&quot;font-size: 13px;&quot;&gt;.&lt;/span&gt;&lt;/p&gt;" style="text;html=1;whiteSpace=wrap;overflow=hidden;rounded=0;" vertex="1" parent="1">
          <mxGeometry x="658.75" y="450" width="232.5" height="150" as="geometry" />
        </mxCell>
        <mxCell id="9W3Ne8WXvol5r-dsmGil-25" value="" style="verticalLabelPosition=bottom;verticalAlign=top;html=1;shadow=0;dashed=0;strokeWidth=1;shape=mxgraph.android.phone2;strokeColor=#c0c0c0;" vertex="1" parent="1">
          <mxGeometry x="640" y="230" width="270" height="470" as="geometry" />
        </mxCell>
        <mxCell id="9W3Ne8WXvol5r-dsmGil-26" value="Home Page" style="text;html=1;align=center;verticalAlign=middle;resizable=0;points=[];autosize=1;strokeColor=none;fillColor=none;strokeWidth=0;" vertex="1" parent="1">
          <mxGeometry x="160" y="740" width="90" height="30" as="geometry" />
        </mxCell>
        <mxCell id="9W3Ne8WXvol5r-dsmGil-27" value="About me" style="text;html=1;align=center;verticalAlign=middle;resizable=0;points=[];autosize=1;strokeColor=none;fillColor=none;" vertex="1" parent="1">
          <mxGeometry x="665" y="728" width="70" height="30" as="geometry" />
        </mxCell>
      </root>
    </mxGraphModel>
  </diagram>
</mxfile>
